<svg width="333.132" height="69" viewBox="0 0 333.132 69" xmlns="http://www.w3.org/2000/svg"><g id="svgGroup" stroke-linecap="round" fill-rule="evenodd" font-size="9pt" stroke="#000000" stroke-width="0.25mm" fill="#000000" style="stroke:#000000;stroke-width:0.25mm;fill:#000000"><path d="M 1.932 69 L 0 69 L 0 0 L 1.932 0 L 1.932 69 Z" id="0" vector-effect="non-scaling-stroke"/><path d="M 72.45 24.564 L 71.346 22.908 Q 72.519 22.011 74.693 20.838 A 24.683 24.683 0 0 1 77.334 19.617 A 31.852 31.852 0 0 1 79.661 18.803 Q 82.455 17.94 85.422 17.94 A 18.424 18.424 0 0 1 88.25 18.144 Q 90.751 18.533 92.495 19.665 Q 95.151 21.39 96.359 24.219 Q 97.566 27.048 97.566 30.36 L 97.566 51.75 L 95.772 51.75 L 95.496 46.644 L 95.358 46.644 A 32.352 32.352 0 0 1 90.655 49.792 A 38.064 38.064 0 0 1 88.734 50.784 A 18.279 18.279 0 0 1 84.309 52.282 A 15.736 15.736 0 0 1 81.282 52.578 Q 78.384 52.578 75.728 51.647 A 10.487 10.487 0 0 1 72.816 50.102 A 9.412 9.412 0 0 1 71.381 48.748 A 6.855 6.855 0 0 1 69.857 45.517 A 9.679 9.679 0 0 1 69.69 43.677 A 8.2 8.2 0 0 1 73.035 36.947 A 14.141 14.141 0 0 1 75.762 35.294 Q 80.726 32.953 90.762 31.695 A 140.464 140.464 0 0 1 95.496 31.188 Q 95.496 28.29 94.599 25.703 Q 93.702 23.115 91.494 21.494 A 7.504 7.504 0 0 0 89.219 20.385 Q 88.193 20.072 86.956 19.95 A 17.033 17.033 0 0 0 85.284 19.872 Q 82.662 19.872 80.213 20.631 Q 77.763 21.39 75.762 22.494 Q 74.23 23.339 73.102 24.104 A 20.351 20.351 0 0 0 72.45 24.564 Z M 95.496 44.298 L 95.496 32.982 Q 87.001 33.772 81.9 35.097 A 38.84 38.84 0 0 0 81.42 35.225 A 32.427 32.427 0 0 0 78.746 36.072 Q 76.11 37.045 74.586 38.261 A 7.798 7.798 0 0 0 74.072 38.709 Q 71.898 40.779 71.898 43.608 A 7.487 7.487 0 0 0 72.097 45.382 A 5.237 5.237 0 0 0 73.313 47.714 A 7.887 7.887 0 0 0 76.369 49.77 A 9.532 9.532 0 0 0 76.9 49.956 Q 79.074 50.646 81.42 50.646 A 15.269 15.269 0 0 0 85.802 49.979 A 19.606 19.606 0 0 0 88.251 49.059 A 25.881 25.881 0 0 0 91.765 47.112 Q 93.374 46.06 95.024 44.695 A 43.6 43.6 0 0 0 95.496 44.298 Z" id="2" vector-effect="non-scaling-stroke"/><path d="M 123.786 42.228 L 123.786 3.864 L 110.952 3.864 L 110.952 1.932 L 125.856 1.932 L 125.856 42.642 A 13.76 13.76 0 0 0 126.02 44.842 Q 126.213 46.031 126.633 46.976 A 5.994 5.994 0 0 0 127.719 48.645 A 5.875 5.875 0 0 0 130.314 50.235 Q 131.252 50.53 132.389 50.614 A 12.616 12.616 0 0 0 133.308 50.646 A 13.387 13.387 0 0 0 135.959 50.372 A 15.53 15.53 0 0 0 136.723 50.197 A 18.187 18.187 0 0 0 139.077 49.416 A 22.171 22.171 0 0 0 140.346 48.852 L 141.174 50.508 Q 139.104 51.543 137.345 52.061 A 11.863 11.863 0 0 1 135.615 52.423 Q 134.772 52.539 133.818 52.568 A 21.315 21.315 0 0 1 133.17 52.578 Q 128.754 52.578 126.27 50.163 Q 124.459 48.403 123.969 44.993 A 19.46 19.46 0 0 1 123.786 42.228 Z" id="3" vector-effect="non-scaling-stroke"/><path d="M 160.032 51.247 A 16.014 16.014 0 0 0 166.566 52.578 A 18.482 18.482 0 0 0 166.702 52.578 A 15.771 15.771 0 0 0 174.501 50.542 A 14.5 14.5 0 0 0 176.897 48.843 A 15.814 15.814 0 0 0 180.262 44.643 A 16.395 16.395 0 0 0 182.035 39.719 A 22.842 22.842 0 0 0 182.436 35.328 A 27.861 27.861 0 0 0 182.436 35.177 Q 182.423 32.847 182.02 30.808 A 16.599 16.599 0 0 0 180.262 25.91 A 17.984 17.984 0 0 0 179.77 25.079 A 14.833 14.833 0 0 0 174.501 19.976 A 15.558 15.558 0 0 0 173.1 19.271 A 16.014 16.014 0 0 0 166.566 17.94 A 18.482 18.482 0 0 0 166.43 17.94 A 15.771 15.771 0 0 0 158.631 19.976 Q 155.043 22.011 152.87 25.91 Q 151.613 28.163 151.083 30.959 A 23.447 23.447 0 0 0 150.696 35.328 A 22.913 22.913 0 0 0 151.083 39.645 A 16.429 16.429 0 0 0 152.869 44.643 A 17.955 17.955 0 0 0 153.289 45.351 A 14.937 14.937 0 0 0 158.631 50.542 A 15.558 15.558 0 0 0 160.032 51.247 Z M 166.566 50.646 A 13.682 13.682 0 0 0 171.159 49.891 A 12.507 12.507 0 0 0 173.604 48.714 Q 176.709 46.782 178.469 43.332 A 15.918 15.918 0 0 0 180.001 38.459 A 20.81 20.81 0 0 0 180.228 35.328 Q 180.228 30.774 178.469 27.29 Q 176.709 23.805 173.604 21.839 A 12.751 12.751 0 0 0 167.115 19.882 A 15.394 15.394 0 0 0 166.566 19.872 A 13.409 13.409 0 0 0 162.146 20.584 A 12.153 12.153 0 0 0 159.562 21.838 A 13.66 13.66 0 0 0 155.046 26.649 A 16.346 16.346 0 0 0 154.698 27.289 A 16.061 16.061 0 0 0 153.097 32.455 A 20.708 20.708 0 0 0 152.904 35.328 A 19.623 19.623 0 0 0 153.325 39.481 A 15.324 15.324 0 0 0 154.698 43.332 A 14.189 14.189 0 0 0 157.602 47.206 A 13.088 13.088 0 0 0 159.562 48.714 A 12.634 12.634 0 0 0 165.596 50.616 A 15.389 15.389 0 0 0 166.566 50.646 Z" id="4" vector-effect="non-scaling-stroke"/><path d="M 206.586 42.228 L 206.586 3.864 L 193.752 3.864 L 193.752 1.932 L 208.656 1.932 L 208.656 42.642 A 13.76 13.76 0 0 0 208.82 44.842 Q 209.013 46.031 209.433 46.976 A 5.994 5.994 0 0 0 210.519 48.645 A 5.875 5.875 0 0 0 213.114 50.235 Q 214.052 50.53 215.189 50.614 A 12.616 12.616 0 0 0 216.108 50.646 A 13.387 13.387 0 0 0 218.759 50.372 A 15.53 15.53 0 0 0 219.523 50.197 A 18.187 18.187 0 0 0 221.877 49.416 A 22.171 22.171 0 0 0 223.146 48.852 L 223.974 50.508 Q 221.904 51.543 220.145 52.061 A 11.863 11.863 0 0 1 218.415 52.423 Q 217.572 52.539 216.618 52.568 A 21.315 21.315 0 0 1 215.97 52.578 Q 211.554 52.578 209.07 50.163 Q 207.259 48.403 206.769 44.993 A 19.46 19.46 0 0 1 206.586 42.228 Z" id="5" vector-effect="non-scaling-stroke"/><path d="M 238.05 24.564 L 236.946 22.908 Q 238.119 22.011 240.293 20.838 A 24.683 24.683 0 0 1 242.934 19.617 A 31.852 31.852 0 0 1 245.261 18.803 Q 248.055 17.94 251.022 17.94 A 18.424 18.424 0 0 1 253.85 18.144 Q 256.351 18.533 258.095 19.665 Q 260.751 21.39 261.959 24.219 Q 263.166 27.048 263.166 30.36 L 263.166 51.75 L 261.372 51.75 L 261.096 46.644 L 260.958 46.644 A 32.352 32.352 0 0 1 256.255 49.792 A 38.064 38.064 0 0 1 254.334 50.784 A 18.279 18.279 0 0 1 249.909 52.282 A 15.736 15.736 0 0 1 246.882 52.578 Q 243.984 52.578 241.328 51.647 A 10.487 10.487 0 0 1 238.416 50.102 A 9.412 9.412 0 0 1 236.981 48.748 A 6.855 6.855 0 0 1 235.457 45.517 A 9.679 9.679 0 0 1 235.29 43.677 A 8.2 8.2 0 0 1 238.635 36.947 A 14.141 14.141 0 0 1 241.362 35.294 Q 246.326 32.953 256.362 31.695 A 140.464 140.464 0 0 1 261.096 31.188 Q 261.096 28.29 260.199 25.703 Q 259.302 23.115 257.094 21.494 A 7.504 7.504 0 0 0 254.819 20.385 Q 253.793 20.072 252.556 19.95 A 17.033 17.033 0 0 0 250.884 19.872 Q 248.262 19.872 245.813 20.631 Q 243.363 21.39 241.362 22.494 Q 239.83 23.339 238.702 24.104 A 20.351 20.351 0 0 0 238.05 24.564 Z M 261.096 44.298 L 261.096 32.982 Q 252.601 33.772 247.5 35.097 A 38.84 38.84 0 0 0 247.02 35.225 A 32.427 32.427 0 0 0 244.346 36.072 Q 241.71 37.045 240.186 38.261 A 7.798 7.798 0 0 0 239.672 38.709 Q 237.498 40.779 237.498 43.608 A 7.487 7.487 0 0 0 237.697 45.382 A 5.237 5.237 0 0 0 238.913 47.714 A 7.887 7.887 0 0 0 241.969 49.77 A 9.532 9.532 0 0 0 242.5 49.956 Q 244.674 50.646 247.02 50.646 A 15.269 15.269 0 0 0 251.402 49.979 A 19.606 19.606 0 0 0 253.851 49.059 A 25.881 25.881 0 0 0 257.365 47.112 Q 258.974 46.06 260.624 44.695 A 43.6 43.6 0 0 0 261.096 44.298 Z" id="6" vector-effect="non-scaling-stroke"/><path d="M 333.132 69 L 331.2 69 L 331.2 0 L 333.132 0 L 333.132 69 Z" id="8" vector-effect="non-scaling-stroke"/></g></svg>